<svg width="67" height="66" viewBox="0 0 67 66" fill="none" xmlns="http://www.w3.org/2000/svg">
<mask id="mask0" mask-type="alpha" maskUnits="userSpaceOnUse" x="0" y="0" width="67" height="66">
<path fill-rule="evenodd" clip-rule="evenodd" d="M0.0708008 0.0332031H66.1749V65.9341H0.0708008V0.0332031Z" fill="white"/>
</mask>
<g mask="url(#mask0)">
<path fill-rule="evenodd" clip-rule="evenodd" d="M65.9016 32.2244L63.2587 29.0275L64.9884 25.2602C65.2267 24.7395 65.0618 24.1231 64.594 23.7909L61.2094 21.386L61.8946 17.2994C61.9896 16.7348 61.6693 16.1831 61.1315 15.9836L57.2369 14.5384L56.8394 10.4142C56.7848 9.84569 56.3327 9.39503 55.7618 9.33998L51.6256 8.94371L50.1752 5.06112C49.9751 4.52494 49.4224 4.20569 48.8554 4.30024L44.7562 4.98338L42.3439 1.60914C42.0107 1.14292 41.393 0.978417 40.8701 1.21604L37.0912 2.94042L33.8844 0.305626C33.4421 -0.0576046 32.8036 -0.0576046 32.3613 0.305626L29.1545 2.94042L25.3756 1.21604C24.8534 0.977758 24.235 1.14292 23.9018 1.60914L21.4895 4.98338L17.3903 4.30024C16.8252 4.20569 16.2706 4.52494 16.0705 5.06112L14.6201 8.94371L10.4839 9.33998C9.91295 9.39503 9.4615 9.8451 9.40634 10.4142L9.00879 14.5377L5.11421 15.9836C4.57645 16.1831 4.25621 16.7348 4.35105 17.2994L5.0363 21.386L1.65159 23.7909C1.18393 24.1231 1.01898 24.7395 1.25734 25.2602L2.98703 29.0275L0.344114 32.2244C-0.0203036 32.6653 -0.0203036 33.3019 0.344114 33.7428L2.98703 36.9396L1.25734 40.7076C1.01832 41.2276 1.18393 41.844 1.65159 42.1763L5.0363 44.5811L4.35105 48.6677C4.25621 49.2324 4.57645 49.7841 5.11421 49.9841L9.00879 51.4294L9.40634 55.5529C9.4609 56.122 9.91295 56.5721 10.4839 56.6272L14.6201 57.0234L16.0698 60.906C16.2706 61.4422 16.8239 61.7615 17.3897 61.6669L21.4895 60.9838L23.9018 64.358C24.235 64.8243 24.8528 64.9894 25.375 64.751L29.1545 63.0267L32.3613 65.6615C32.5821 65.8428 32.8523 65.9342 33.1225 65.9342C33.3928 65.9342 33.6629 65.8428 33.8844 65.6615L37.0912 63.0267L40.8701 64.751C41.393 64.99 42.0107 64.8243 42.3439 64.358L44.7562 60.9838L48.8554 61.6669C49.4211 61.7615 49.9751 61.4422 50.1752 60.906L51.625 57.0234L55.7618 56.6272C56.3322 56.5728 56.7842 56.122 56.8394 55.5529L57.2369 51.4294L61.1315 49.9841C61.6693 49.7841 61.9896 49.2324 61.8946 48.6683L61.2094 44.5811L64.594 42.1763C65.0618 41.844 65.2267 41.2283 64.9884 40.7076L63.2587 36.9396L65.9016 33.7428C66.266 33.3019 66.266 32.6653 65.9016 32.2244Z" fill="#892470"/>
</g>
<path fill-rule="evenodd" clip-rule="evenodd" d="M28.8839 28.1259C29.4191 28.1379 29.9755 28.1786 30.4227 28.3649C31.7147 28.9034 32.2791 30.3203 31.6563 31.5476C31.5677 31.7222 31.4652 31.8704 31.3513 32L35.9 31.9699C35.2114 31.1741 35.1764 29.9858 35.9106 29.0501C36.107 28.7999 36.4897 28.5144 36.8806 28.3558C37.3205 28.1774 37.8718 28.1378 38.3972 28.1259V31.5654L41.1562 31.563V26C36.9157 27.9519 30.4157 28.0402 26.125 26V31.5664L28.8839 31.5524V28.1259Z" fill="#FEFEFE"/>
<path fill-rule="evenodd" clip-rule="evenodd" d="M38.9756 40L37.1479 37.7359L37.3172 37.4995C37.9012 36.6846 38.2585 35.3443 38.3483 34.3385L38.3786 34H41.1563L41.1306 34.3978C41.0152 36.1882 40.3624 38.2703 39.2509 39.6567L38.9756 40Z" fill="#FEFEFE"/>
<path fill-rule="evenodd" clip-rule="evenodd" d="M25.123 34H27.9824L28.0136 34.2878C28.2632 36.5954 30.4503 38.482 33.2003 38.482C33.8381 38.482 34.467 38.3788 35.0595 38.1763L35.317 38.0883L37.148 40.0956L36.7475 40.2703C35.6457 40.7507 34.4366 41 33.2003 41C28.8646 41 25.4344 37.9885 25.1495 34.3383L25.123 34Z" fill="#FEFEFE"/>
<path fill-rule="evenodd" clip-rule="evenodd" d="M33.1396 8.08319C19.3718 8.08319 8.17089 19.2609 8.17089 33C8.17089 46.7391 19.3718 57.9168 33.1396 57.9168C46.9074 57.9168 58.1083 46.7391 58.1083 33C58.1083 19.2609 46.9074 8.08319 33.1396 8.08319ZM33.1396 59C29.6226 59 26.2104 58.3125 22.998 56.9566C19.8954 55.647 17.1091 53.7724 14.7165 51.3848C12.3239 48.9972 10.4454 46.2166 9.13312 43.1206C7.77437 39.9147 7.08545 36.5097 7.08545 33C7.08545 29.4903 7.77437 26.0852 9.13312 22.8794C10.4454 19.7833 12.3239 17.0028 14.7165 14.6152C17.1091 12.2276 19.8954 10.3529 22.998 9.04341C26.2104 7.68749 29.6226 7 33.1396 7C36.6567 7 40.0688 7.68749 43.2812 9.04341C46.3838 10.3529 49.1701 12.2276 51.5627 14.6152C53.9552 17.0028 55.8339 19.7833 57.1461 22.8794C58.5049 26.0852 59.1938 29.4903 59.1938 33C59.1938 36.5097 58.5049 39.9147 57.1461 43.1206C55.8339 46.2166 53.9552 48.9972 51.5627 51.3848C49.1701 53.7724 46.3838 55.647 43.2812 56.9566C40.0688 58.3125 36.6567 59 33.1396 59Z" fill="#F16930"/>
<path fill-rule="evenodd" clip-rule="evenodd" d="M32.1371 44.2475C25.3699 44.2475 19.8644 38.7535 19.8644 32.0003C19.8644 25.2471 25.3699 19.7525 32.1371 19.7525C38.9044 19.7525 44.4104 25.2471 44.4104 32.0003C44.4104 38.7535 38.9044 44.2475 32.1371 44.2475ZM32.1371 19C24.9545 19 19.1104 24.832 19.1104 32.0003C19.1104 39.168 24.9545 45 32.1371 45C39.3204 45 45.1645 39.168 45.1645 32.0003C45.1645 24.832 39.3204 19 32.1371 19Z" fill="#F16930"/>
<path fill-rule="evenodd" clip-rule="evenodd" d="M12.3384 42.3055C12.2645 42.1654 12.2082 42.0221 12.1696 41.8755C12.131 41.7288 12.107 41.581 12.0979 41.4318C12.0885 41.2826 12.1095 41.1259 12.1607 40.9616C12.2166 40.8288 12.2832 40.7018 12.3608 40.5803C12.4382 40.4589 12.5299 40.345 12.6361 40.2387C12.7422 40.1325 12.8772 40.0324 13.0414 39.9386C13.3215 39.8702 13.5226 39.8743 13.6449 39.9515C13.7671 40.0286 13.848 40.0947 13.8877 40.15C13.9274 40.2052 13.9681 40.2619 14.0099 40.32C14.1003 40.5698 14.1172 40.7483 14.0609 40.8556C14.0044 40.9629 13.9036 41.0828 13.7585 41.2155C13.653 41.3041 13.6017 41.369 13.6047 41.4103L13.6134 41.5339L16.3446 45.3354C16.3714 45.3604 16.412 45.389 16.4665 45.4214C16.5208 45.4537 16.5751 45.4795 16.6292 45.4991C16.6833 45.5187 16.7409 45.5338 16.8019 45.5443C16.8484 45.5473 16.8914 45.5421 16.9307 45.5285C16.9699 45.515 17.0224 45.4859 17.0884 45.4413C17.1543 45.3968 17.2062 45.3701 17.2447 45.3615C17.2602 45.3337 17.2944 45.2976 17.3473 45.2533C17.3999 45.209 17.431 45.1685 17.4404 45.132C17.4495 45.0955 17.4636 45.0406 17.4824 44.9675C17.4837 44.9321 17.4829 44.8938 17.48 44.8526C17.477 44.8112 17.4676 44.7703 17.4515 44.7293C17.4354 44.6884 17.4208 44.6465 17.4078 44.6034L14.8395 41.0287C14.7512 40.881 14.6779 40.7234 14.6196 40.5554C14.5612 40.3876 14.5232 40.2168 14.5053 40.0433C14.4874 39.8696 14.4948 39.694 14.5275 39.5165C14.5763 39.3366 14.6468 39.1593 14.7395 38.9845C14.832 38.8098 14.9535 38.6628 15.1039 38.5437C15.2542 38.4249 15.4146 38.3165 15.5846 38.2186C15.7248 38.1413 15.8665 38.0843 16.0095 38.0479C16.1524 38.0116 16.297 37.996 16.4431 38.0009C16.5889 38.0058 16.7424 38.0271 16.9033 38.0653C17.0504 38.1213 17.1877 38.1794 17.3158 38.2398C17.4436 38.3001 17.5571 38.3745 17.6563 38.4628C17.7554 38.5514 17.8698 38.6424 17.9995 38.7361L20.9187 42.7991C20.974 42.9257 21.0192 43.0571 21.0547 43.1929C21.09 43.3288 21.1096 43.4645 21.1136 43.6001C21.1174 43.7355 21.1087 43.8754 21.0876 44.0193C21.0465 44.1851 20.9867 44.3314 20.9085 44.4578C20.8301 44.5841 20.7345 44.7051 20.6215 44.8203C20.5085 44.9357 20.3818 45.032 20.2417 45.1095C20.1015 45.1869 19.9265 45.1974 19.7167 45.1407C19.6455 45.1284 19.5748 45.0984 19.5051 45.0506C19.4351 45.0028 19.3783 44.9485 19.3345 44.8874C19.2906 44.8265 19.2457 44.7639 19.1998 44.7001C19.1451 44.5123 19.1377 44.3533 19.1774 44.2228C19.2172 44.0923 19.2788 43.9987 19.3629 43.9419C19.4467 43.8853 19.5107 43.8289 19.5552 43.773C19.5996 43.7171 19.6298 43.6815 19.6457 43.6665C19.6615 43.6514 19.6409 43.5855 19.5837 43.4687L16.9151 39.7544C16.8655 39.7102 16.816 39.6661 16.7664 39.6219C16.7167 39.5777 16.6629 39.5429 16.6047 39.5175C16.5464 39.4921 16.4845 39.4712 16.4195 39.4549C16.4031 39.4572 16.3765 39.4665 16.3395 39.483C16.3023 39.4994 16.2651 39.5159 16.2281 39.5324C16.1909 39.5488 16.1604 39.5653 16.1365 39.5814L16.0014 39.8023C16.0001 39.8376 16.002 39.8775 16.007 39.9216C16.012 39.9656 16.0215 40.0132 16.0359 40.064C16.05 40.1148 16.0638 40.1618 16.0769 40.2047L18.6327 43.7621C18.7375 43.9329 18.8188 44.1111 18.8766 44.2967C18.9342 44.4823 18.9651 44.6708 18.9693 44.8624C18.9733 45.0539 18.9503 45.2573 18.9002 45.4726C18.8375 45.6705 18.7537 45.848 18.6488 46.0055C18.5436 46.1628 18.409 46.3036 18.2445 46.4278C18.08 46.552 17.9138 46.6709 17.7462 46.7843C17.5773 46.8467 17.4128 46.8997 17.2527 46.9432C17.0925 46.9867 16.9277 47.0052 16.7586 46.9988C16.5891 46.9923 16.4118 46.9654 16.2265 46.9181C16.0596 46.884 15.91 46.8213 15.7773 46.7296C15.6447 46.6379 15.5241 46.5445 15.4157 46.4494C15.3074 46.3542 15.1961 46.2459 15.0822 46.1244L12.3384 42.3055Z" fill="#FEFEFE"/>
<path fill-rule="evenodd" clip-rule="evenodd" d="M22.9669 50.8843C22.9236 50.8391 22.8793 50.799 22.8342 50.764C22.7891 50.7291 22.7549 50.6738 22.7319 50.5985C22.7086 50.5232 22.6905 50.4559 22.6774 50.3969L22.6796 50.1638L24.7008 46.4465L22.3263 45.193L22.1357 44.8359C22.1139 44.765 22.1109 44.6909 22.1264 44.6135C22.142 44.5364 22.164 44.4716 22.1922 44.4196C22.2205 44.3676 22.2503 44.3128 22.2818 44.255C22.5056 44.0237 22.7457 43.9498 23.0023 44.0331L28.8768 47.1342C29.0669 47.3535 29.1505 47.5259 29.1276 47.6513C29.1046 47.7768 29.0783 47.867 29.0484 47.9218C29.0186 47.9768 28.9864 48.0359 28.9518 48.0994C28.75 48.2903 28.5113 48.3614 28.236 48.3126L25.888 47.0732L23.8856 50.7559C23.6457 51.0307 23.3395 51.0734 22.9669 50.8843Z" fill="#FEFEFE"/>
<path fill-rule="evenodd" clip-rule="evenodd" d="M28.6841 53.8879L28.2948 53.6617C28.234 53.6162 28.1909 53.5564 28.1654 53.4825C28.1399 53.4087 28.1278 53.343 28.129 53.2855C28.1302 53.228 28.1317 53.1577 28.1334 53.0746L29.5871 51.2073L29.95 51.0401L33.6807 51.0945L31.9536 48.9316C31.8451 48.5787 31.9279 48.3178 32.202 48.1492C32.2569 48.1053 32.3272 48.0712 32.4128 48.0468C32.4982 48.0226 32.5759 48.0109 32.6453 48.0119C32.7148 48.0129 32.7864 48.0091 32.8601 48.0006C32.9335 47.9921 33.1114 48.0761 33.3935 48.2528L37.1477 53.1964C37.0856 53.5661 37.0057 53.7855 36.9076 53.8543C36.8096 53.9231 36.7159 53.9649 36.627 53.9796C36.5377 53.9942 36.4525 54.001 36.3715 53.9999C36.2903 53.9986 36.1995 53.9974 36.0992 53.9959L35.6868 53.7694L34.7074 52.4131L30.5363 52.3523L29.441 53.7168C29.3549 53.7666 29.2786 53.8086 29.2124 53.8429C29.1459 53.8769 29.0664 53.8935 28.9737 53.892C28.881 53.8907 28.7843 53.8893 28.6841 53.8879Z" fill="#FEFEFE"/>
<path fill-rule="evenodd" clip-rule="evenodd" d="M41.5463 52.9611C41.4847 52.9526 41.4235 52.9594 41.3625 52.9819C41.3014 53.0044 41.235 53.0059 41.1638 52.9867C41.0924 52.9673 41.0243 52.9504 40.9596 52.9356L40.7103 52.7663L38.1681 48.0289C38.1394 47.8089 38.1447 47.6599 38.1841 47.5818C38.2234 47.5037 38.2908 47.4022 38.3861 47.2767C38.6299 47.1404 38.8975 47.1016 39.189 47.16L43.0615 48.3338L44.3339 44.4124C44.4769 44.2244 44.6383 44.0938 44.8183 44.0202C45.1824 43.9569 45.4437 44.0423 45.6018 44.2763L48.154 49.0321C48.2235 49.4193 48.0771 49.7065 47.7144 49.894C47.376 49.96 47.0941 49.8967 46.8688 49.7039L45.21 46.5902L44.2123 49.6377C44.0538 49.8726 43.8308 49.9868 43.5432 49.981L40.3421 49.0134L42.0104 52.1223C42.0114 52.1999 42.0098 52.2689 42.0058 52.3294C42.0018 52.3901 41.9864 52.4562 41.9599 52.5278C41.9333 52.5996 41.8995 52.6651 41.8582 52.7246L41.5463 52.9611Z" fill="#FEFEFE"/>
<path fill-rule="evenodd" clip-rule="evenodd" d="M51.7047 46.7578C51.6475 46.7781 51.5982 46.8115 51.5569 46.8583C51.5153 46.905 51.4592 46.9361 51.3884 46.9517C51.3176 46.9673 51.2507 46.9836 51.1878 47L50.8902 46.9679L48.6512 45.5307C48.3697 45.2279 48.3328 44.9355 48.5404 44.6534L51.6678 40.2241C51.7275 40.0671 51.7462 39.9529 51.7239 39.8815C51.7017 39.8105 51.676 39.7531 51.6466 39.7098C51.6175 39.6667 51.5778 39.629 51.5278 39.5969C51.478 39.5649 51.4334 39.5283 51.3942 39.4868C51.3569 39.4792 51.3098 39.4611 51.253 39.4327C51.1961 39.4044 51.1428 39.3864 51.0926 39.3787C51.0426 39.3709 51.0058 39.3718 50.9821 39.3809C50.9151 39.4033 50.8619 39.4241 50.8227 39.4435C50.7832 39.4631 50.7404 39.4905 50.694 39.5259C50.6478 39.5614 50.6097 39.5939 50.5801 39.6237L47.4052 44.1203L47.0007 44.2759C46.9181 44.2962 46.8361 44.2945 46.7547 44.2706C46.6732 44.247 46.6061 44.2181 46.5532 44.1841C46.5002 44.1501 46.4445 44.1143 46.3856 44.0766C46.1609 43.8265 46.109 43.5734 46.2301 43.3171L49.4998 38.6861C49.636 38.5781 49.7667 38.4747 49.8919 38.376C50.0172 38.2773 50.1599 38.1959 50.3204 38.1319C50.4808 38.0679 50.6534 38.0262 50.8383 38.0062C51.0447 37.9922 51.247 38.002 51.4453 38.0355C51.6436 38.0693 51.8295 38.1356 52.0028 38.2346C52.1763 38.3337 52.3453 38.4362 52.5098 38.5417C52.6154 38.6584 52.715 38.7772 52.8088 38.8985C52.9025 39.0196 52.9765 39.1447 53.031 39.2731C53.0854 39.4018 53.1318 39.5476 53.1704 39.7107C53.1873 39.8682 53.1842 40.0149 53.1609 40.1505C53.1377 40.2863 53.1082 40.422 53.0721 40.5575C53.0361 40.6932 52.9794 40.8339 52.9021 40.9797L50.1664 44.8543L51.6914 45.8332C51.7304 45.8991 51.7631 45.9586 51.7893 46.012C51.8156 46.0656 51.8349 46.1289 51.8474 46.202C51.8597 46.2752 51.8628 46.3462 51.8566 46.4156L51.7047 46.7578Z" fill="#FEFEFE"/>
<path fill-rule="evenodd" clip-rule="evenodd" d="M15.5978 27.7817C15.5371 27.7991 15.4837 27.8307 15.4374 27.8767C15.391 27.9226 15.3305 27.9513 15.2562 27.9629C15.1817 27.9745 15.1113 27.9869 15.045 28L14.7392 27.9466L10.2768 24.6235C10.152 24.4323 10.0903 24.2926 10.0918 24.2043C10.0932 24.1161 10.1099 23.9945 10.1419 23.8395C10.306 23.6132 10.5356 23.467 10.8307 23.4007L14.9286 22.8867L14.3507 18.7433C14.3987 18.5109 14.4893 18.3237 14.6225 18.1816C14.9302 17.9731 15.2095 17.9441 15.4598 18.0948L19.9398 21.4308C20.1769 21.7595 20.1701 22.0849 19.9192 22.4075C19.6364 22.608 19.3481 22.6658 19.0539 22.5808L16.1322 20.3917L16.5731 23.6153C16.5317 23.8974 16.377 24.0949 16.1089 24.208L12.7227 24.6354L15.6512 26.8162C15.6868 26.8875 15.7162 26.9517 15.7396 27.0093C15.7629 27.0669 15.7783 27.1342 15.7858 27.2113C15.7933 27.2885 15.7913 27.3628 15.7799 27.4348L15.5978 27.7817Z" fill="#FEFEFE"/>
<path fill-rule="evenodd" clip-rule="evenodd" d="M21.9077 20L21.5086 19.9422C21.4416 19.9239 21.3813 19.8857 21.3277 19.828C21.2743 19.7703 21.2347 19.7148 21.209 19.6618C21.1832 19.6088 21.1519 19.5441 21.1147 19.4674L21.35 17.2047L21.547 16.9129L24.3944 15.5352L22.0865 14.2193C21.8412 13.9382 21.783 13.6681 21.9123 13.4092C21.9335 13.3481 21.9709 13.29 22.0244 13.235C22.0778 13.1801 22.131 13.1397 22.1841 13.1141C22.2372 13.0884 22.2894 13.0576 22.3413 13.0216C22.393 12.9857 22.5664 12.9945 22.8617 13.048L27.9902 16.1296C28.1145 16.4913 28.1555 16.7224 28.1132 16.8227C28.0709 16.9232 28.0194 16.9972 27.9588 17.0447C27.8981 17.0922 27.8369 17.131 27.775 17.161C27.7131 17.1909 27.6438 17.2245 27.5672 17.2615L27.1504 17.2123L25.7816 16.3475L22.5981 17.8879L22.4012 19.554C22.359 19.6325 22.3209 19.7001 22.2866 19.7567C22.2521 19.8133 22.1995 19.8588 22.1288 19.893C22.0581 19.9272 21.9843 19.963 21.9077 20Z" fill="#FEFEFE"/>
<path fill-rule="evenodd" clip-rule="evenodd" d="M32.6327 16C32.5625 15.9816 32.4942 15.968 32.4282 15.9593C32.362 15.9505 32.2954 15.9177 32.2285 15.8607C32.1613 15.8038 32.0804 15.7277 31.9855 15.6326L28.2083 11.0942C28.0456 10.698 28.1329 10.398 28.4703 10.1943C28.6245 10.1409 28.7868 10.1099 28.9575 10.1011C29.1278 10.0926 29.3118 10.1736 29.5092 10.3445L32.7012 14.1194L35.5861 10.3993C35.9192 9.96441 36.3521 9.88474 36.8852 10.1604C37.1936 10.4585 37.2301 10.7503 36.9952 11.0361L33.4288 15.6328C33.2083 15.8798 32.943 16.0022 32.6327 16Z" fill="#FEFEFE"/>
<path fill-rule="evenodd" clip-rule="evenodd" d="M39.6413 13.3185L39.4145 12.9418C39.3803 12.8631 39.3697 12.7815 39.3825 12.6971C39.3953 12.6127 39.4158 12.5416 39.4438 12.4838C39.4718 12.4261 39.5014 12.3652 39.5326 12.3009C39.7637 12.0391 40.0246 11.9481 40.3152 12.028L46.8799 15.0804C47.0459 15.2678 47.1371 15.4025 47.1536 15.4848C47.1697 15.5671 47.173 15.6472 47.1634 15.7253C47.1536 15.8032 47.1348 15.8712 47.1067 15.9289C47.0788 15.9866 47.0476 16.0509 47.0134 16.1214C46.8038 16.3384 46.5476 16.4277 46.2453 16.3893L39.6413 13.3185ZM37.4899 17.9789C37.4629 17.9349 37.4216 17.896 37.3657 17.8622C37.31 17.8284 37.2683 17.7775 37.2409 17.7098C37.2136 17.642 37.1862 17.5783 37.1591 17.5185L37.1479 17.2185L38.4966 14.4373C38.7597 14.1431 39.0485 14.0689 39.363 14.2152L45.1415 16.902C45.1716 16.9396 45.2152 16.9776 45.273 17.0162C45.3304 17.0547 45.3744 17.1086 45.4052 17.1779C45.4358 17.2472 45.4581 17.3086 45.4723 17.3624C45.4998 17.4382 45.506 17.5078 45.4913 17.5718C45.4763 17.6355 45.4581 17.6978 45.4367 17.7586C45.4152 17.8193 45.3858 17.8883 45.3486 17.9653C45.1103 18.2083 44.8314 18.2949 44.5121 18.225L39.4313 15.8625L38.8761 17.0078L44.6152 19.6763C44.7807 19.8319 44.8698 19.95 44.8829 20.0307C44.8959 20.1116 44.9025 20.1892 44.9025 20.2638C44.9023 20.3386 44.8932 20.411 44.8752 20.4812C44.8572 20.5515 44.8265 20.6315 44.783 20.7213C44.5415 20.9708 44.2529 21.0527 43.917 20.9673L37.4899 17.9789Z" fill="#FEFEFE"/>
<path fill-rule="evenodd" clip-rule="evenodd" d="M44.2765 22.2559C44.2683 22.1992 44.2373 22.1171 44.1835 22.0095C44.1299 21.9018 44.1793 21.706 44.3328 21.422L48.7865 18.111C49.0203 18.0087 49.1832 17.9771 49.2751 18.0162C49.3669 18.0554 49.4452 18.0954 49.5107 18.1364C49.5759 18.1772 49.6486 18.2419 49.7285 18.33C49.8085 18.4183 49.8597 18.5748 49.8821 18.7998L49.9986 25.8135L53.1706 23.4419C53.2427 23.4508 53.3091 23.4439 53.37 23.4212C53.4306 23.3983 53.5038 23.3999 53.5896 23.4256C53.6752 23.4514 53.7503 23.4784 53.8147 23.5066C53.879 23.5347 53.9825 23.6436 54.1251 23.8329C54.2309 24.1389 54.1928 24.4044 54.0108 24.6293L49.5745 27.9274C48.9655 28.1296 48.6173 27.9096 48.5301 27.2677L48.3954 20.2138L45.2516 22.551C44.8757 22.6962 44.5505 22.5978 44.2765 22.2559Z" fill="#FEFEFE"/>
<path fill-rule="evenodd" clip-rule="evenodd" d="M13.098 29L13.8077 31.2918H16.1043L14.2463 32.7082L14.956 35L13.098 33.5836L11.24 35L11.9497 32.7082L10.0918 31.2918H12.3883L13.098 29Z" fill="#FEFEFE"/>
<path fill-rule="evenodd" clip-rule="evenodd" d="M53.1811 29L53.8908 31.2918H56.1873L54.3294 32.7082L55.0391 35L53.1811 33.5836L51.3231 35L52.0327 32.7082L50.1748 31.2918H52.4714L53.1811 29Z" fill="#FEFEFE"/>
</svg>
